<svg xmlns="http://www.w3.org/2000/svg" width="128" height="161" fill="none" viewBox="0 0 128 161">
    <path fill="#0369a1" d="M59.272 1.272 4.719 32.769A9.44 9.44 0 0 0 0 40.95v62.995a9.46 9.46 0 0 0 4.72 8.181l37.003 21.359v27.442l81.68-48.767a9.446 9.446 0 0 0 4.597-8.11v-63.1a9.46 9.46 0 0 0-4.719-8.18L68.711 1.272a9.393 9.393 0 0 0-9.44 0Z"/>
    <path fill="#fff" d="M27.582 91.29h-13.32a3.2 3.2 0 0 1-3.198-3.2V64.652a3.2 3.2 0 0 1 3.199-3.199h13.319a3.2 3.2 0 0 1 3.199 3.199v23.44a3.2 3.2 0 0 1-3.199 3.198Zm29.05 16.028H43.313a3.2 3.2 0 0 1-3.198-3.199v-23.44a3.2 3.2 0 0 1 3.198-3.198h13.32a3.2 3.2 0 0 1 3.198 3.198v23.44a3.2 3.2 0 0 1-3.199 3.199ZM85.683 91.29h-13.32a3.2 3.2 0 0 1-3.198-3.2V64.652a3.2 3.2 0 0 1 3.199-3.199h13.319a3.2 3.2 0 0 1 3.199 3.199v23.44a3.2 3.2 0 0 1-3.2 3.198Zm29.068-16.047h-13.319a3.2 3.2 0 0 1-3.2-3.198v-23.44a3.2 3.2 0 0 1 3.2-3.198h13.319a3.2 3.2 0 0 1 3.198 3.198v23.44a3.2 3.2 0 0 1-3.198 3.198Z"/>
</svg>
