<svg id="Layer_1" data-name="Layer 1" xmlns="http://www.w3.org/2000/svg" viewBox="0 0 1068.66 813.01"><defs><style>.cls-1{fill:#224abe;}.cls-2{fill:#fff;}</style></defs><path class="cls-1" d="M902.83,0h-737C74.63,0,0,74.63,0,165.83V486C0,577.2,74.63,651.82,165.83,651.82H705.48L904.18,813V651.79c90.59-.73,164.48-75,164.48-165.8V165.83C1068.66,74.63,994,0,902.83,0Z"/><path class="cls-2" d="M154.4,377.9a71.08,71.08,0,0,0,23.29,30.43,57.66,57.66,0,0,0,35.48,11.54q16.1,0,27.64-7.56t11.53-21.82q0-20.57-31.77-31.48L184,346.42q-33.52-11.75-53.11-31.9t-19.59-52q0-20.15,7.4-36.3a79.59,79.59,0,0,1,20.9-27.7,96.86,96.86,0,0,1,31.56-17.84,120.26,120.26,0,0,1,39.83-6.3q34,0,61.81,16.79a105.16,105.16,0,0,1,41.79,46.59l-54.41,30.22a74.84,74.84,0,0,0-18.94-25q-12-10.29-28.94-10.29-15.26,0-24.6,7.14a22.59,22.59,0,0,0-9.36,18.89,21.61,21.61,0,0,0,7.84,17.2q7.83,6.72,21.76,11.76l39.62,14.69q37,13.44,54.63,33.79t17.63,50.15q0,22.26-8.93,39.46a88.61,88.61,0,0,1-23.72,29A108.35,108.35,0,0,1,253,472.76a131.13,131.13,0,0,1-40.7,6.29,136.12,136.12,0,0,1-36.57-4.83,125.81,125.81,0,0,1-32.21-13.85A113.8,113.8,0,0,1,117,437.92a105.7,105.7,0,0,1-18.72-31.06Z"/><path class="cls-2" d="M697.62,174.33V479.05H634.07V286.87L554.76,479.05H508L429.08,287.74V479.05H365.52V174.33h79.66l87.48,212,95.77-212Z"/><path class="cls-2" d="M802.76,377.9a71.08,71.08,0,0,0,23.29,30.43,57.66,57.66,0,0,0,35.48,11.54q16.1,0,27.64-7.56t11.53-21.82q0-20.57-31.77-31.48l-36.57-12.59q-33.52-11.75-53.11-31.9t-19.59-52q0-20.15,7.4-36.3a79.59,79.59,0,0,1,20.9-27.7,96.86,96.86,0,0,1,31.56-17.84,120.22,120.22,0,0,1,39.83-6.3q34,0,61.81,16.79A105.16,105.16,0,0,1,963,237.71l-54.41,30.22a74.84,74.84,0,0,0-18.94-25q-12-10.29-29-10.29-15.24,0-24.59,7.14a22.59,22.59,0,0,0-9.36,18.89,21.61,21.61,0,0,0,7.84,17.2q7.83,6.72,21.76,11.76l39.62,14.69q37,13.44,54.63,33.79t17.63,50.15q0,22.26-8.93,39.46a88.61,88.61,0,0,1-23.72,29,108.35,108.35,0,0,1-34.17,18.05,131.14,131.14,0,0,1-40.71,6.29,136.1,136.1,0,0,1-36.56-4.83,125.81,125.81,0,0,1-32.21-13.85,113.8,113.8,0,0,1-26.56-22.45,105.7,105.7,0,0,1-18.72-31.06Z"/></svg>