<svg width="409.659" height="75.001" viewBox="0 0 409.659 75.001" xmlns="http://www.w3.org/2000/svg"><g id="svgGroup" stroke-linecap="round" fill-rule="nonzero" font-size="9pt" stroke="#ffffff" stroke-width="1mm" fill="#ffffff" style="stroke:#ffffff;stroke-width:1mm;fill:#ffffff"><path d="M 66.903 73.722 L 66.903 0.995 L 77.415 0.995 L 102.131 61.364 L 102.983 61.364 L 127.699 0.995 L 138.21 0.995 L 138.21 73.722 L 129.972 73.722 L 129.972 18.466 L 129.261 18.466 L 106.534 73.722 L 98.58 73.722 L 75.852 18.466 L 75.142 18.466 L 75.142 73.722 L 66.903 73.722 Z M 51.42 19.177 L 42.898 19.177 A 11.531 11.531 0 0 0 41.2 14.252 A 11.629 11.629 0 0 0 37.713 10.796 A 17.762 17.762 0 0 0 31.318 8.25 A 24.669 24.669 0 0 0 26.563 7.813 A 25.249 25.249 0 0 0 22.437 8.134 A 18.32 18.32 0 0 0 18.129 9.375 A 15.233 15.233 0 0 0 15.012 11.164 A 12.071 12.071 0 0 0 12.518 13.672 Q 10.511 16.407 10.511 19.887 A 10.118 10.118 0 0 0 10.799 22.354 A 7.903 7.903 0 0 0 11.914 24.876 A 11.797 11.797 0 0 0 15.518 28.321 A 24.421 24.421 0 0 0 20.135 30.558 A 61.667 61.667 0 0 0 22.452 31.344 A 45.424 45.424 0 0 0 24.574 31.961 L 31.96 33.949 A 54.054 54.054 0 0 1 34.768 34.773 Q 36.232 35.244 37.837 35.837 A 90.805 90.805 0 0 1 38.299 36.009 A 30.078 30.078 0 0 1 45.011 39.578 A 18.542 18.542 0 0 1 50.32 45.348 A 14.334 14.334 0 0 1 52.014 49.809 Q 52.39 51.62 52.413 53.699 A 24.646 24.646 0 0 1 52.415 53.978 A 19.224 19.224 0 0 1 49.343 64.631 A 19.896 19.896 0 0 1 43.478 70.462 A 25.729 25.729 0 0 1 40.394 72.195 A 27.249 27.249 0 0 1 33.891 74.299 Q 30.884 74.891 27.431 74.983 A 48.353 48.353 0 0 1 26.136 75 A 40.693 40.693 0 0 1 19.705 74.518 Q 15.83 73.897 12.624 72.479 A 23.526 23.526 0 0 1 7.26 69.239 A 19.772 19.772 0 0 1 3.675 65.448 A 19.713 19.713 0 0 1 0.105 56.078 A 23.813 23.813 0 0 1 0 54.972 L 9.091 54.972 A 12.955 12.955 0 0 0 9.839 58.41 A 10.346 10.346 0 0 0 11.879 61.772 A 14.265 14.265 0 0 0 16.905 65.305 A 17.277 17.277 0 0 0 18.058 65.75 A 23.91 23.91 0 0 0 24.532 67 A 27.912 27.912 0 0 0 26.136 67.046 A 26.43 26.43 0 0 0 31.203 66.58 A 21.043 21.043 0 0 0 35.192 65.395 A 17.276 17.276 0 0 0 38.787 63.415 A 13.926 13.926 0 0 0 41.548 60.778 Q 43.892 57.813 43.892 53.836 A 10.581 10.581 0 0 0 43.583 51.212 A 7.703 7.703 0 0 0 41.868 47.941 Q 39.844 45.668 36.541 44.248 A 53.615 53.615 0 0 0 31.519 42.389 A 62.548 62.548 0 0 0 29.403 41.762 L 20.455 39.205 A 43.627 43.627 0 0 1 14.338 36.971 Q 9.99 34.979 6.96 32.209 Q 1.989 27.664 1.989 20.313 Q 1.989 14.205 5.309 9.642 A 21.444 21.444 0 0 1 12.555 3.382 A 26.051 26.051 0 0 1 14.258 2.539 Q 19.886 0 26.847 0 A 33.777 33.777 0 0 1 33.487 0.626 A 26.549 26.549 0 0 1 39.347 2.504 A 23.768 23.768 0 0 1 44.769 5.885 A 20.246 20.246 0 0 1 48.029 9.34 Q 51.243 13.672 51.42 19.177 Z M 204.119 19.177 L 195.597 19.177 A 11.531 11.531 0 0 0 193.899 14.252 A 11.629 11.629 0 0 0 190.412 10.796 A 17.762 17.762 0 0 0 184.017 8.25 A 24.669 24.669 0 0 0 179.261 7.813 A 25.249 25.249 0 0 0 175.136 8.134 A 18.32 18.32 0 0 0 170.827 9.375 A 15.233 15.233 0 0 0 167.711 11.164 A 12.071 12.071 0 0 0 165.217 13.672 Q 163.21 16.407 163.21 19.887 A 10.118 10.118 0 0 0 163.498 22.354 A 7.903 7.903 0 0 0 164.613 24.876 A 11.797 11.797 0 0 0 168.217 28.321 A 24.421 24.421 0 0 0 172.834 30.558 A 61.667 61.667 0 0 0 175.151 31.344 A 45.424 45.424 0 0 0 177.273 31.961 L 184.659 33.949 A 54.054 54.054 0 0 1 187.467 34.773 Q 188.931 35.244 190.536 35.837 A 90.805 90.805 0 0 1 190.998 36.009 A 30.078 30.078 0 0 1 197.71 39.578 A 18.542 18.542 0 0 1 203.018 45.348 A 14.334 14.334 0 0 1 204.713 49.809 Q 205.089 51.62 205.112 53.699 A 24.646 24.646 0 0 1 205.114 53.978 A 19.224 19.224 0 0 1 202.042 64.631 A 19.896 19.896 0 0 1 196.177 70.462 A 25.729 25.729 0 0 1 193.093 72.195 A 27.249 27.249 0 0 1 186.59 74.299 Q 183.583 74.891 180.129 74.983 A 48.353 48.353 0 0 1 178.835 75 A 40.693 40.693 0 0 1 172.404 74.518 Q 168.529 73.897 165.323 72.479 A 23.526 23.526 0 0 1 159.959 69.239 A 19.772 19.772 0 0 1 156.374 65.448 A 19.713 19.713 0 0 1 152.804 56.078 A 23.813 23.813 0 0 1 152.699 54.972 L 161.79 54.972 A 12.955 12.955 0 0 0 162.538 58.41 A 10.346 10.346 0 0 0 164.577 61.772 A 14.265 14.265 0 0 0 169.604 65.305 A 17.277 17.277 0 0 0 170.756 65.75 A 23.91 23.91 0 0 0 177.231 67 A 27.912 27.912 0 0 0 178.835 67.046 A 26.43 26.43 0 0 0 183.902 66.58 A 21.043 21.043 0 0 0 187.891 65.395 A 17.276 17.276 0 0 0 191.486 63.415 A 13.926 13.926 0 0 0 194.247 60.778 Q 196.591 57.813 196.591 53.836 A 10.581 10.581 0 0 0 196.282 51.212 A 7.703 7.703 0 0 0 194.567 47.941 Q 192.543 45.668 189.24 44.248 A 53.615 53.615 0 0 0 184.217 42.389 A 62.548 62.548 0 0 0 182.102 41.762 L 173.153 39.205 A 43.627 43.627 0 0 1 167.037 36.971 Q 162.689 34.979 159.659 32.209 Q 154.688 27.664 154.688 20.313 Q 154.688 14.205 158.008 9.642 A 21.444 21.444 0 0 1 165.254 3.382 A 26.051 26.051 0 0 1 166.957 2.539 Q 172.585 0 179.545 0 A 33.777 33.777 0 0 1 186.186 0.626 A 26.549 26.549 0 0 1 192.045 2.504 A 23.768 23.768 0 0 1 197.468 5.885 A 20.246 20.246 0 0 1 200.728 9.34 Q 203.942 13.672 204.119 19.177 Z M 228.409 73.722 L 219.602 73.722 L 219.602 0.995 L 244.176 0.995 A 39.241 39.241 0 0 1 249.926 1.391 Q 254.693 2.099 258.185 4.066 Q 263.636 7.138 266.264 12.358 A 24.796 24.796 0 0 1 268.8 21.638 A 29.889 29.889 0 0 1 268.892 24.006 A 27.395 27.395 0 0 1 267.872 31.583 A 24.184 24.184 0 0 1 266.282 35.689 A 19.39 19.39 0 0 1 258.824 43.706 A 23.562 23.562 0 0 1 258.239 44.052 A 21.825 21.825 0 0 1 252.474 46.283 Q 249.853 46.913 246.786 47.09 A 42.777 42.777 0 0 1 244.318 47.16 L 226.705 47.16 L 226.705 39.347 L 244.034 39.347 A 27.655 27.655 0 0 0 247.79 39.108 Q 251.114 38.651 253.445 37.323 A 12.802 12.802 0 0 0 256.978 34.414 A 11.765 11.765 0 0 0 258.612 31.836 Q 260.227 28.374 260.227 24.006 A 20.229 20.229 0 0 0 259.771 19.626 A 16.402 16.402 0 0 0 258.612 16.194 A 11.705 11.705 0 0 0 253.961 11.097 A 14.527 14.527 0 0 0 253.409 10.778 A 14.179 14.179 0 0 0 250.108 9.502 Q 247.413 8.807 243.892 8.807 L 228.409 8.807 L 228.409 73.722 Z M 304.119 74.858 Q 296.733 74.858 291.175 71.343 A 23.47 23.47 0 0 1 283.011 62.477 A 28.205 28.205 0 0 1 282.511 61.506 A 29.633 29.633 0 0 1 279.916 53.249 A 39.68 39.68 0 0 1 279.403 46.733 A 39.482 39.482 0 0 1 280.075 39.278 A 29.497 29.497 0 0 1 282.511 31.854 Q 285.618 25.498 291.175 21.982 A 22.714 22.714 0 0 1 300.974 18.635 A 28.723 28.723 0 0 1 304.119 18.466 Q 311.506 18.466 317.063 21.982 Q 322.621 25.498 325.728 31.854 A 29.919 29.919 0 0 1 328.322 40.166 A 40.289 40.289 0 0 1 328.835 46.733 A 38.845 38.845 0 0 1 328.152 54.189 A 29.201 29.201 0 0 1 325.728 61.506 A 24.746 24.746 0 0 1 320.741 68.454 A 22.827 22.827 0 0 1 317.063 71.343 A 22.714 22.714 0 0 1 307.265 74.69 A 28.723 28.723 0 0 1 304.119 74.858 Z M 304.119 67.33 A 17.999 17.999 0 0 0 308.199 66.891 A 12.836 12.836 0 0 0 313.352 64.454 A 16.691 16.691 0 0 0 318.311 57.893 A 20.198 20.198 0 0 0 318.714 56.89 A 28.197 28.197 0 0 0 320.393 48.757 A 33.064 33.064 0 0 0 320.455 46.733 A 30.316 30.316 0 0 0 319.556 39.257 A 27.153 27.153 0 0 0 318.714 36.542 Q 316.974 31.819 313.352 28.907 A 12.9 12.9 0 0 0 307.742 26.339 A 18.181 18.181 0 0 0 304.119 25.995 A 17.725 17.725 0 0 0 299.964 26.457 A 12.748 12.748 0 0 0 294.886 28.907 Q 291.264 31.819 289.524 36.542 A 28.643 28.643 0 0 0 287.828 45.022 A 33.311 33.311 0 0 0 287.784 46.733 A 30.241 30.241 0 0 0 288.607 53.884 A 26.749 26.749 0 0 0 289.524 56.89 A 17.858 17.858 0 0 0 292.389 61.986 A 16.154 16.154 0 0 0 294.886 64.454 A 12.95 12.95 0 0 0 300.42 66.974 A 18.331 18.331 0 0 0 304.119 67.33 Z M 363.778 74.858 Q 356.392 74.858 350.835 71.343 A 23.47 23.47 0 0 1 342.67 62.477 A 28.205 28.205 0 0 1 342.17 61.506 A 29.633 29.633 0 0 1 339.575 53.249 A 39.68 39.68 0 0 1 339.063 46.733 A 39.482 39.482 0 0 1 339.734 39.278 A 29.497 29.497 0 0 1 342.17 31.854 Q 345.277 25.498 350.835 21.982 A 22.714 22.714 0 0 1 360.633 18.635 A 28.723 28.723 0 0 1 363.778 18.466 Q 371.165 18.466 376.722 21.982 Q 382.28 25.498 385.387 31.854 A 29.919 29.919 0 0 1 387.982 40.166 A 40.289 40.289 0 0 1 388.494 46.733 A 38.845 38.845 0 0 1 387.812 54.189 A 29.201 29.201 0 0 1 385.387 61.506 A 24.746 24.746 0 0 1 380.4 68.454 A 22.827 22.827 0 0 1 376.722 71.343 A 22.714 22.714 0 0 1 366.924 74.69 A 28.723 28.723 0 0 1 363.778 74.858 Z M 363.778 67.33 A 17.999 17.999 0 0 0 367.858 66.891 A 12.836 12.836 0 0 0 373.011 64.454 A 16.691 16.691 0 0 0 377.97 57.893 A 20.198 20.198 0 0 0 378.374 56.89 A 28.197 28.197 0 0 0 380.052 48.757 A 33.064 33.064 0 0 0 380.114 46.733 A 30.316 30.316 0 0 0 379.215 39.257 A 27.153 27.153 0 0 0 378.374 36.542 Q 376.634 31.819 373.011 28.907 A 12.9 12.9 0 0 0 367.401 26.339 A 18.181 18.181 0 0 0 363.778 25.995 A 17.725 17.725 0 0 0 359.623 26.457 A 12.748 12.748 0 0 0 354.545 28.907 Q 350.923 31.819 349.183 36.542 A 28.643 28.643 0 0 0 347.487 45.022 A 33.311 33.311 0 0 0 347.443 46.733 A 30.241 30.241 0 0 0 348.266 53.884 A 26.749 26.749 0 0 0 349.183 56.89 A 17.858 17.858 0 0 0 352.048 61.986 A 16.154 16.154 0 0 0 354.545 64.454 A 12.95 12.95 0 0 0 360.079 66.974 A 18.331 18.331 0 0 0 363.778 67.33 Z M 401.278 0.995 L 409.659 0.995 L 409.659 73.722 L 401.278 73.722 L 401.278 0.995 Z"/></g></svg>