<svg width="38" height="24" viewBox="0 0 38 24" fill="none" xmlns="http://www.w3.org/2000/svg">
    <g clip-path="url(#clip0_3032_44833)">
        <path d="M5.6108 18.1406V8.31108H7.84091V18.1406H5.6108ZM1.81108 14.3409V12.1108H11.6406V14.3409H1.81108Z" fill="white"/>
        <path d="M14 3C14 2.20435 14.3161 1.44129 14.8787 0.87868C15.4413 0.316071 16.2044 0 17 0L29 0C29.7956 0 30.5587 0.316071 31.1213 0.87868C31.6839 1.44129 32 2.20435 32 3V6H35C35.7956 6 36.5587 6.31607 37.1213 6.87868C37.6839 7.44129 38 8.20435 38 9V21C38 21.7956 37.6839 22.5587 37.1213 23.1213C36.5587 23.6839 35.7956 24 35 24H23C22.2044 24 21.4413 23.6839 20.8787 23.1213C20.3161 22.5587 20 21.7956 20 21V18H17C16.2044 18 15.4413 17.6839 14.8787 17.1213C14.3161 16.5587 14 15.7956 14 15V3ZM17 1.5C16.6022 1.5 16.2206 1.65804 15.9393 1.93934C15.658 2.22064 15.5 2.60218 15.5 3V15C15.5 15.3978 15.658 15.7794 15.9393 16.0607C16.2206 16.342 16.6022 16.5 17 16.5H29C29.3978 16.5 29.7794 16.342 30.0607 16.0607C30.342 15.7794 30.5 15.3978 30.5 15V3C30.5 2.60218 30.342 2.22064 30.0607 1.93934C29.7794 1.65804 29.3978 1.5 29 1.5H17Z" fill="white"/>
    </g>
    <defs>
        <clipPath id="clip0_3032_44833">
            <rect width="38" height="24" fill="white"/>
        </clipPath>
    </defs>
</svg>
